<svg width="17" height="20" viewBox="0 0 17 20" fill="none" xmlns="http://www.w3.org/2000/svg">
<path d="M16.1287 3.13917L13.798 0.854167C13.2447 0.311667 12.478 0 11.6943 0H7.65C5.7749 0 4.25 1.495 4.25 3.33333H3.4C1.5249 3.33333 0 4.82833 0 6.66667V16.6667C0 18.505 1.5249 20 3.4 20H9.35C11.2251 20 12.75 18.505 12.75 16.6667H13.6C15.4751 16.6667 17 15.1717 17 13.3333V5.20167C17 4.4225 16.6906 3.69083 16.1287 3.13917ZM15.5278 3.72833C15.6621 3.86 15.7675 4.00917 15.8602 4.16583H13.6009C13.1316 4.16583 12.7508 3.79167 12.7508 3.3325V1.11917C12.9115 1.21 13.0653 1.31333 13.1971 1.4425L15.5278 3.72833ZM9.35 19.1658H3.4C1.9941 19.1658 0.85 18.0442 0.85 16.6658V6.66583C0.85 5.2875 1.9941 4.16583 3.4 4.16583H4.25V13.3325C4.25 15.1708 5.7749 16.6658 7.65 16.6658H11.9C11.9 18.0442 10.7559 19.1658 9.35 19.1658ZM16.15 13.3325C16.15 14.7108 15.0059 15.8325 13.6 15.8325H7.65C6.2441 15.8325 5.1 14.7108 5.1 13.3325V3.3325C5.1 1.95417 6.2441 0.8325 7.65 0.8325H11.6943C11.764 0.8325 11.8312 0.845833 11.9 0.8525V3.3325C11.9 4.25167 12.6625 4.99917 13.6 4.99917H16.1296C16.1364 5.06667 16.15 5.1325 16.15 5.20167V13.3325Z" fill="black" fill-opacity="0.8"/>
</svg>
