<svg width="24" height="24" viewBox="0 0 24 24" fill="none" xmlns="http://www.w3.org/2000/svg">
<rect width="24" height="24" rx="12" fill="#FF0032"/>
<path d="M13.4996 19.0901C13.4996 19.1988 13.4564 19.3031 13.3795 19.38C13.3026 19.4569 13.1983 19.5001 13.0896 19.5001H10.9096C10.806 19.4928 10.7091 19.4466 10.6383 19.3707C10.5676 19.2948 10.5282 19.1949 10.5282 19.0911C10.5282 18.9873 10.5676 18.8874 10.6383 18.8115C10.7091 18.7356 10.806 18.6893 10.9096 18.6821H13.0906C13.199 18.6823 13.3028 18.7255 13.3795 18.8022C13.4561 18.8788 13.4993 18.9817 13.4996 19.0901ZM11.9996 11.3191C12.0913 11.3226 12.1827 11.3076 12.2685 11.2749C12.3542 11.2422 12.4325 11.1926 12.4986 11.129C12.5647 11.0653 12.6173 10.989 12.6532 10.9046C12.6892 10.8202 12.7077 10.7293 12.7077 10.6376C12.7077 10.5458 12.6892 10.455 12.6532 10.3706C12.6173 10.2861 12.5647 10.2098 12.4986 10.1462C12.4325 10.0826 12.3542 10.0329 12.2685 10.0003C12.1827 9.96759 12.0913 9.95256 11.9996 9.95607C11.8233 9.96283 11.6566 10.0376 11.5343 10.1646C11.412 10.2917 11.3437 10.4612 11.3437 10.6376C11.3437 10.8139 11.412 10.9834 11.5343 11.1105C11.6566 11.2376 11.8233 11.3123 11.9996 11.3191ZM18.3856 14.4151L17.5426 18.2051C17.5077 18.3625 17.4335 18.5085 17.3269 18.6295C17.2203 18.7505 17.0848 18.8426 16.9331 18.8971C16.7813 18.9516 16.6182 18.9668 16.459 18.9412C16.2998 18.9157 16.1497 18.8503 16.0226 18.7511L14.1266 17.3191H9.87458L7.97658 18.7501C7.84962 18.8503 7.69926 18.9166 7.53965 18.9427C7.38003 18.9688 7.2164 18.9539 7.06411 18.8994C6.91183 18.8449 6.7759 18.7526 6.6691 18.6312C6.5623 18.5097 6.48814 18.3631 6.45358 18.2051L5.61358 14.4141C5.58228 14.2716 5.58385 14.124 5.61816 13.9822C5.65246 13.8405 5.71861 13.7084 5.81158 13.5961L7.78858 11.2261C7.84958 10.3661 8.04458 9.52207 8.36658 8.72307C9.23358 6.54907 10.7886 5.18607 11.4166 4.70007C11.584 4.57033 11.7898 4.49993 12.0016 4.49993C12.2134 4.49993 12.4192 4.57033 12.5866 4.70007C13.2146 5.18607 14.7676 6.55007 15.6366 8.72307C15.9576 9.52207 16.1526 10.3661 16.2146 11.2261L18.1916 13.5961C18.2838 13.7088 18.3493 13.841 18.3829 13.9827C18.4165 14.1244 18.4174 14.2719 18.3856 14.4141M9.97158 16.5001H14.0266C15.5216 13.8781 15.8076 11.3641 14.8746 9.02607C14.0596 6.98107 12.5326 5.69407 12.0846 5.34507C12.0605 5.32576 12.0305 5.31524 11.9996 5.31524C11.9687 5.31524 11.9387 5.32576 11.9146 5.34507C11.4656 5.69207 9.93758 6.98107 9.12458 9.02607C8.19058 11.3641 8.47658 13.8781 9.97158 16.5001ZM9.20358 16.8001C8.38558 15.3351 7.91558 13.8961 7.79758 12.4921L6.44058 14.1191C6.42751 14.1353 6.41821 14.1542 6.41337 14.1744C6.40852 14.1947 6.40825 14.2157 6.41258 14.2361L7.25558 18.0291C7.26052 18.0517 7.27116 18.0727 7.28648 18.09C7.30181 18.1074 7.32131 18.1205 7.34314 18.1283C7.36497 18.136 7.38841 18.138 7.41124 18.1341C7.43406 18.1302 7.45552 18.1206 7.47358 18.1061L7.48358 18.0991L9.20358 16.8001ZM17.5606 14.1201L16.2046 12.4921C16.0876 13.8961 15.6186 15.3351 14.7986 16.8001L16.5186 18.0951L16.5286 18.1031C16.5468 18.1171 16.5682 18.1265 16.5908 18.1303C16.6135 18.1342 16.6368 18.1324 16.6586 18.1251C16.6801 18.117 16.6993 18.1037 16.7145 18.0865C16.7296 18.0692 16.7403 18.0485 16.7456 18.0261L17.5896 14.2361C17.5935 14.2155 17.5927 14.1943 17.5874 14.1741C17.582 14.1538 17.5722 14.135 17.5586 14.1191L17.5606 14.1201Z" fill="white"/>
<path d="M18.3856 14.4151L17.5426 18.2051C17.5077 18.3625 17.4335 18.5085 17.3269 18.6295C17.2203 18.7505 17.0848 18.8426 16.9331 18.8971C16.7813 18.9516 16.6182 18.9668 16.459 18.9412C16.2998 18.9157 16.1497 18.8503 16.0226 18.7511L14.1266 17.3191H9.87458L7.97658 18.7501C7.84962 18.8503 7.69926 18.9166 7.53965 18.9427C7.38003 18.9688 7.2164 18.9539 7.06411 18.8994C6.91183 18.8449 6.7759 18.7526 6.6691 18.6312C6.5623 18.5097 6.48814 18.3631 6.45358 18.2051L5.61358 14.4141C5.58228 14.2716 5.58385 14.124 5.61816 13.9822C5.65246 13.8405 5.71861 13.7084 5.81158 13.5961L7.78858 11.2261C7.84958 10.3661 8.04458 9.52207 8.36658 8.72307C9.23358 6.54907 10.7886 5.18607 11.4166 4.70007C11.584 4.57033 11.7898 4.49993 12.0016 4.49993C12.2134 4.49993 12.4192 4.57033 12.5866 4.70007C13.2146 5.18607 14.7676 6.55007 15.6366 8.72307C15.9576 9.52207 16.1526 10.3661 16.2146 11.2261L18.1916 13.5961C18.2838 13.7088 18.3493 13.841 18.3829 13.9827C18.4165 14.1244 18.4174 14.2719 18.3856 14.4141M13.4996 19.0901C13.4996 19.1988 13.4564 19.3031 13.3795 19.38C13.3026 19.4569 13.1983 19.5001 13.0896 19.5001H10.9096C10.806 19.4928 10.7091 19.4466 10.6383 19.3707C10.5676 19.2948 10.5282 19.1949 10.5282 19.0911C10.5282 18.9873 10.5676 18.8874 10.6383 18.8115C10.7091 18.7356 10.806 18.6893 10.9096 18.6821H13.0906C13.199 18.6823 13.3028 18.7255 13.3795 18.8022C13.4561 18.8788 13.4993 18.9817 13.4996 19.0901ZM11.9996 11.3191C12.0913 11.3226 12.1827 11.3076 12.2685 11.2749C12.3542 11.2422 12.4325 11.1926 12.4986 11.129C12.5647 11.0653 12.6173 10.989 12.6532 10.9046C12.6892 10.8202 12.7077 10.7293 12.7077 10.6376C12.7077 10.5458 12.6892 10.455 12.6532 10.3706C12.6173 10.2861 12.5647 10.2098 12.4986 10.1462C12.4325 10.0826 12.3542 10.0329 12.2685 10.0003C12.1827 9.96759 12.0913 9.95256 11.9996 9.95607C11.8233 9.96283 11.6566 10.0376 11.5343 10.1646C11.412 10.2917 11.3437 10.4612 11.3437 10.6376C11.3437 10.8139 11.412 10.9834 11.5343 11.1105C11.6566 11.2376 11.8233 11.3123 11.9996 11.3191ZM9.97158 16.5001H14.0266C15.5216 13.8781 15.8076 11.3641 14.8746 9.02607C14.0596 6.98107 12.5326 5.69407 12.0846 5.34507C12.0605 5.32576 12.0305 5.31524 11.9996 5.31524C11.9687 5.31524 11.9387 5.32576 11.9146 5.34507C11.4656 5.69207 9.93758 6.98107 9.12458 9.02607C8.19058 11.3641 8.47658 13.8781 9.97158 16.5001ZM9.20358 16.8001C8.38558 15.3351 7.91558 13.8961 7.79758 12.4921L6.44058 14.1191C6.42751 14.1353 6.41821 14.1542 6.41337 14.1744C6.40852 14.1947 6.40825 14.2157 6.41258 14.2361L7.25558 18.0291C7.26052 18.0517 7.27116 18.0727 7.28648 18.09C7.30181 18.1074 7.32131 18.1205 7.34314 18.1283C7.36497 18.136 7.38841 18.138 7.41124 18.1341C7.43406 18.1302 7.45552 18.1206 7.47358 18.1061L7.48358 18.0991L9.20358 16.8001ZM17.5606 14.1201L16.2046 12.4921C16.0876 13.8961 15.6186 15.3351 14.7986 16.8001L16.5186 18.0951L16.5286 18.1031C16.5468 18.1171 16.5682 18.1265 16.5908 18.1303C16.6135 18.1342 16.6368 18.1324 16.6586 18.1251C16.6801 18.117 16.6993 18.1037 16.7145 18.0865C16.7296 18.0692 16.7403 18.0485 16.7456 18.0261L17.5896 14.2361C17.5935 14.2155 17.5927 14.1943 17.5874 14.1741C17.582 14.1538 17.5722 14.135 17.5586 14.1191L17.5606 14.1201Z" stroke="white" stroke-width="0.7"/>
</svg>
